HIERARCHY
ROOT hip
{
  OFFSET 0 0 0
  CHANNELS 6 Xposition Yposition Zposition Zrotation Yrotation Xrotation
  JOINT abdomen
  {
    OFFSET 0 20.6881 -0.73152
    CHANNELS 3 Zrotation Xrotation Yrotation
    JOINT chest
    {
      OFFSET 0 11.7043 -0.48768
      CHANNELS 3 Zrotation Xrotation Yrotation
      JOINT neck
      {
        OFFSET 0 22.1894 -2.19456
        CHANNELS 3 Zrotation Xrotation Yrotation
        JOINT head
        {
          OFFSET -0.24384 7.07133 1.2192
          CHANNELS 3 Zrotation Xrotation Yrotation
          JOINT leftEye
          {
            OFFSET 4.14528 8.04674 8.04672
            CHANNELS 3 Zrotation Xrotation Yrotation
            End Site
            {
              OFFSET 1 0 0
            }
          }
          JOINT rightEye
          {
            OFFSET -3.6576 8.04674 8.04672
            CHANNELS 3 Zrotation Xrotation Yrotation
            End Site
            {
              OFFSET 1 0 0
            }
          }
        }
      }
      JOINT rCollar
      {
        OFFSET -2.68224 19.2634 -4.8768
        CHANNELS 3 Zrotation Xrotation Yrotation
        JOINT rShldr
        {
          OFFSET -8.77824 -1.95073 1.46304
          CHANNELS 3 Zrotation Xrotation Yrotation
          JOINT rForeArm
          {
            OFFSET -28.1742 -1.7115 0.48768
            CHANNELS 3 Zrotation Xrotation Yrotation
            JOINT rHand
            {
              OFFSET -22.5879 0.773209 7.07136
              CHANNELS 3 Zrotation Xrotation Yrotation
              JOINT rThumb1
              {
                OFFSET -1.2192 -0.487915 3.41376
                CHANNELS 3 Zrotation Xrotation Yrotation
                JOINT rThumb2
                {
                  OFFSET -3.37035 -0.52449 3.41376
                  CHANNELS 3 Zrotation Xrotation Yrotation
                  End Site
                  {
                    OFFSET -1.78271 -1.18214 1.43049
                  }
                }
              }
              JOINT rIndex1
              {
                OFFSET -7.75947 0.938293 5.60832
                CHANNELS 3 Zrotation Xrotation Yrotation
                JOINT rIndex2
                {
                  OFFSET -2.54057 -0.884171 1.56538
                  CHANNELS 3 Zrotation Xrotation Yrotation
                  End Site
                  {
                    OFFSET -1.62519 -0.234802 1.16502
                  }
                }
              }
              JOINT rMid1
              {
                OFFSET -8.24714 1.18213 3.41376
                CHANNELS 3 Zrotation Xrotation Yrotation
                JOINT rMid2
                {
                  OFFSET -3.10165 -0.590103 1.0647
                  CHANNELS 3 Zrotation Xrotation Yrotation
                  End Site
                  {
                    OFFSET -2.48547 -0.328903 0.83742
                  }
                }
              }
              JOINT rRing1
              {
                OFFSET -8.82822 0.546677 1.51678
                CHANNELS 3 Zrotation Xrotation Yrotation
                JOINT rRing2
                {
                  OFFSET -2.60934 -0.819778 -0.0198488
                  CHANNELS 3 Zrotation Xrotation Yrotation
                  End Site
                  {
                    OFFSET -2.33842 -0.294052 0.168128
                  }
                }
              }
              JOINT rPinky1
              {
                OFFSET -8.27202 -0.0477905 -0.4584
                CHANNELS 3 Zrotation Xrotation Yrotation
                JOINT rPinky2
                {
                  OFFSET -1.82734 -0.647385 -0.700984
                  CHANNELS 3 Zrotation Xrotation Yrotation
                  End Site
                  {
                    OFFSET -1.69225 -0.51767 -0.607171
                  }
                }
              }
            }
          }
        }
      }
      JOINT lCollar
      {
        OFFSET 2.68224 19.2634 -4.8768
        CHANNELS 3 Zrotation Xrotation Yrotation
        JOINT lShldr
        {
          OFFSET 8.77824 -1.95073 1.46304
          CHANNELS 3 Zrotation Xrotation Yrotation
          JOINT lForeArm
          {
            OFFSET 28.1742 -1.7115 0.48768
            CHANNELS 3 Zrotation Xrotation Yrotation
            JOINT lHand
            {
              OFFSET 22.5879 0.773209 7.07136
              CHANNELS 3 Zrotation Xrotation Yrotation
              JOINT lThumb1
              {
                OFFSET 1.2192 -0.487915 3.41376
                CHANNELS 3 Zrotation Xrotation Yrotation
                JOINT lThumb2
                {
                  OFFSET 3.37035 -0.52449 3.41376
                  CHANNELS 3 Zrotation Xrotation Yrotation
                  End Site
                  {
                    OFFSET 1.78271 -1.18214 1.43049
                  }
                }
              }
              JOINT lIndex1
              {
                OFFSET 7.75947 0.938293 5.60832
                CHANNELS 3 Zrotation Xrotation Yrotation
                JOINT lIndex2
                {
                  OFFSET 2.54057 -0.884171 1.56538
                  CHANNELS 3 Zrotation Xrotation Yrotation
                  End Site
                  {
                    OFFSET 1.62519 -0.234802 1.16502
                  }
                }
              }
              JOINT lMid1
              {
                OFFSET 8.24714 1.18213 3.41376
                CHANNELS 3 Zrotation Xrotation Yrotation
                JOINT lMid2
                {
                  OFFSET 3.10165 -0.590103 1.0647
                  CHANNELS 3 Zrotation Xrotation Yrotation
                  End Site
                  {
                    OFFSET 2.48547 -0.328903 0.83742
                  }
                }
              }
              JOINT lRing1
              {
                OFFSET 8.82822 0.546677 1.51678
                CHANNELS 3 Zrotation Xrotation Yrotation
                JOINT lRing2
                {
                  OFFSET 2.60934 -0.819778 -0.0198488
                  CHANNELS 3 Zrotation Xrotation Yrotation
                  End Site
                  {
                    OFFSET 2.33842 -0.294052 0.168128
                  }
                }
              }
              JOINT lPinky1
              {
                OFFSET 8.27202 -0.0477905 -0.4584
                CHANNELS 3 Zrotation Xrotation Yrotation
                JOINT lPinky2
                {
                  OFFSET 1.82734 -0.647385 -0.700984
                  CHANNELS 3 Zrotation Xrotation Yrotation
                  End Site
                  {
                    OFFSET 1.69225 -0.51767 -0.607171
                  }
                }
              }
            }
          }
        }
      }
    }
  }
  JOINT rButtock
  {
    OFFSET -8.77824 4.35084 1.2192
    CHANNELS 3 Zrotation Xrotation Yrotation
    JOINT rThigh
    {
      OFFSET 0 -1.70687 -2.19456
      CHANNELS 3 Zrotation Xrotation Yrotation
      JOINT rShin
      {
        OFFSET 0 -36.8199 0.73152
        CHANNELS 3 Zrotation Xrotation Yrotation
        JOINT rFoot
        {
          OFFSET 0.73152 -45.1104 -5.12064
          CHANNELS 3 Zrotation Xrotation Yrotation
          End Site
          {
            OFFSET -1.1221 -3.69964 12.103
          }
        }
      }
    }
  }
  JOINT lButtock
  {
    OFFSET 8.77824 4.35084 1.2192
    CHANNELS 3 Zrotation Xrotation Yrotation
    JOINT lThigh
    {
      OFFSET 0 -1.70687 -2.19456
      CHANNELS 3 Zrotation Xrotation Yrotation
      JOINT lShin
      {
        OFFSET 0 -36.8199 0.73152
        CHANNELS 3 Zrotation Xrotation Yrotation
        JOINT lFoot
        {
          OFFSET -0.73152 -45.1104 -5.12064
          CHANNELS 3 Zrotation Xrotation Yrotation
          End Site
          {
            OFFSET 1.1221 -3.69964 12.103
          }
        }
      }
    }
  }
}
MOTION
Frames:	4
Frame Time:	0.03333
-23.183132881572355 37.90877932762137 2.3754830190504856 -146.02198791503906 -61.89779281616211 151.5540008544922 15.498498916625977 10.646199226379395 4.15701961517334 1.1965699195861816 -8.734950065612793 1.3430300951004028 -0.16944299638271332 11.732500076293945 4.864140510559082 3.6501002311706543 -26.342100143432617 10.55940055847168 -0.0 0.0 -0.0 -0.0 0.0 -0.0 -1.5266661632790113e-13 -1.0177774421860075e-13 7.696942042056953e-13 104.55899810791016 45.54030227661133 -52.26110076904297 -26.2893009185791 -45.69089889526367 94.89419555664062 -11.08549976348877 -64.80990600585938 -17.385000228881836 -3.372329304696109e-09 7.185508438256605e-11 1.7991506062742246e-09 -5.884102094455557e-09 2.1963637852895346e-10 2.9149018754281997e-09 -3.372329304696109e-09 7.185508438256605e-11 1.7991506062742246e-09 7.7309088706970215 5.474880218505859 0.41731396317481995 -3.372329304696109e-09 7.185508438256605e-11 1.7991506062742246e-09 2.9055399894714355 0.9651829600334167 0.10290198773145676 -3.372329304696109e-09 7.185508438256605e-11 1.7991506062742246e-09 10.27859878540039 0.73180091381073 0.025912299752235413 -3.372329304696109e-09 7.185508438256605e-11 1.7991570455677675e-09 2.2216696739196777 -0.7334870100021362 -0.2089199721813202 -1.5266661632790113e-13 -1.0177774421860075e-13 7.696942042056953e-13 -77.23509979248047 -12.490299224853516 -88.69999694824219 5.883150100708008 -1.99183988571167 -10.276798248291016 18.180702209472656 71.61070251464844 -25.010799407958984 2.792526876405077e-09 2.5217980481606617e-10 -7.866528761724112e-09 4.29832880399772e-09 2.670648147073962e-10 -1.364029778017084e-08 2.792526876405077e-09 2.5217980481606617e-10 -7.866522544475174e-09 -7.7309088706970215 5.474880218505859 -0.41731396317481995 2.792526876405077e-09 2.5217980481606617e-10 -7.866528761724112e-09 -2.9055399894714355 0.9651829600334167 -0.10290198773145676 2.7925013412755106e-09 2.5217980481606617e-10 -7.866528761724112e-09 -10.27859878540039 0.73180091381073 -0.025912299752235413 2.792526876405077e-09 2.5217980481606617e-10 -7.866528761724112e-09 -2.2216696739196777 -0.7334870100021362 0.2089199721813202 -0.0 0.0 -0.0 -7.402257919311523 4.0186309814453125 -11.323100090026855 -0.14601194858551025 39.87199783325195 1.7953702211380005 -12.952096939086914 -16.33690071105957 -28.778099060058594 -0.0 0.0 -0.0 72.2908935546875 -58.83229446411133 57.36229705810547 3.3328096866607666 75.4552001953125 -3.4376494884490967 -0.7843770384788513 -2.2164201736450195 -7.965281009674072
-23.221406463571384 37.87594660828112 2.3537106221348862 -145.760986328125 -62.02589416503906 151.4089813232422 15.581096649169922 10.522299766540527 4.088449478149414 1.1655899286270142 -8.682389259338379 1.3174799680709839 -0.2380000352859497 11.845699310302734 4.846779823303223 3.654360294342041 -26.501699447631836 10.537400245666504 -0.0 0.0 -0.0 -0.0 0.0 -0.0 -3.0533323265580226e-13 7.124442095302053e-13 6.106664653116045e-13 104.59099578857422 45.45549774169922 -52.20669937133789 -26.307296752929688 -45.653099060058594 94.8147964477539 -10.61569881439209 -64.15299987792969 -16.864397048950195 -3.720765251458147e-09 1.884414985164895e-10 1.3731916714831982e-09 -6.459451640239422e-09 4.2240308473218136e-10 2.163502266228079e-09 -3.720765251458147e-09 1.884414985164895e-10 1.3731790149407175e-09 7.7309088706970215 5.474880218505859 0.41731396317481995 -3.720765251458147e-09 1.884414985164895e-10 1.3731790149407175e-09 2.9055399894714355 0.9651829600334167 0.10290198773145676 -3.720765251458147e-09 1.884414985164895e-10 1.3731790149407175e-09 10.27859878540039 0.73180091381073 0.025912299752235413 -3.720765251458147e-09 1.884414985164895e-10 1.3731916714831982e-09 2.2216696739196777 -0.7334870100021362 -0.2089199721813202 -3.0533323265580226e-13 7.124442095302053e-13 6.106664653116045e-13 -77.0243911743164 -12.487101554870605 -88.70439147949219 5.93359899520874 -2.0141899585723877 -10.366999626159668 18.33009910583496 71.7107925415039 -25.16809844970703 8.785200344973987e-10 -3.6138733672252954e-10 -6.976221822441175e-09 1.084009326746127e-09 -7.426976256219575e-10 -1.2005498817302396e-08 8.785455141158138e-10 -3.6138733672252954e-10 -6.976202726605152e-09 -7.7309088706970215 5.474880218505859 -0.41731396317481995 8.785455141158138e-10 -3.6141276082979346e-10 -6.976221822441175e-09 -2.9055399894714355 0.9651829600334167 -0.10290198773145676 8.785200344973987e-10 -3.6138733672252954e-10 -6.976221822441175e-09 -10.27859878540039 0.73180091381073 -0.025912299752235413 8.785455141158138e-10 -3.6138733672252954e-10 -6.976221822441175e-09 -2.2216696739196777 -0.7334870100021362 0.2089199721813202 -0.0 0.0 -0.0 -7.295070171356201 4.078919410705566 -11.451998710632324 -0.14401410520076752 39.79710388183594 1.7973397970199585 -12.971999168395996 -16.14240074157715 -29.021697998046875 -0.0 0.0 -0.0 72.65389251708984 -59.02470016479492 57.720394134521484 3.384829521179199 75.63570404052734 -3.493969678878784 -0.807520866394043 -2.3727900981903076 -7.907320022583008
-23.25389317113117 37.84237281341592 2.3210520292627774 -145.65098571777344 -62.132198333740234 151.40296936035156 15.588797569274902 10.407299995422363 4.105759620666504 1.143489956855774 -8.63578987121582 1.316659927368164 -0.18744806945323944 11.959200859069824 4.843710422515869 3.5530498027801514 -26.62459945678711 10.507699012756348 -0.0 0.0 -0.0 -0.0 0.0 -0.0 -7.633330816395056e-14 -3.816665408197528e-13 5.597775932023041e-13 104.67898559570312 45.38849639892578 -52.21959686279297 -26.325397491455078 -45.614994049072266 94.73499298095703 -10.260198593139648 -63.62940216064453 -16.468400955200195 -3.5505165474347677e-09 2.2602292260032186e-10 1.0751928236629738e-09 -6.153278775400395e-09 4.724522995047664e-10 1.663449045175014e-09 -3.5504912343498063e-09 2.2602292260032186e-10 1.0751800560981906e-09 7.7309088706970215 5.474880218505859 0.41731396317481995 -3.5504912343498063e-09 2.2602292260032186e-10 1.0751928236629738e-09 2.9055399894714355 0.9651829600334167 0.10290198773145676 -3.5504912343498063e-09 2.2602292260032186e-10 1.0751800560981906e-09 10.27859878540039 0.73180091381073 0.025912299752235413 -3.5505165474347677e-09 2.2602292260032186e-10 1.0751928236629738e-09 2.2216696739196777 -0.7334870100021362 -0.2089199721813202 -7.633330816395056e-14 -3.816665408197528e-13 5.597775932023041e-13 -76.17109680175781 -12.51509952545166 -88.56669616699219 6.001619815826416 -2.0444700717926025 -10.488698959350586 17.118497848510742 70.86439514160156 -23.889698028564453 1.090752044241583e-09 3.7377875100608193e-11 -5.655802048920577e-09 1.5327473734672026e-09 -1.365094010052914e-10 -9.746777607233525e-09 1.090752044241583e-09 3.7377875100608193e-11 -5.655789170333492e-09 -7.7309088706970215 5.474880218505859 -0.41731396317481995 1.090752044241583e-09 3.7377875100608193e-11 -5.655802048920577e-09 -2.9055399894714355 0.9651829600334167 -0.10290198773145676 1.090752044241583e-09 3.7377875100608193e-11 -5.655808266169515e-09 -10.27859878540039 0.73180091381073 -0.025912299752235413 1.090752044241583e-09 3.7377875100608193e-11 -5.655808266169515e-09 -2.2216696739196777 -0.7334870100021362 0.2089199721813202 -0.0 0.0 -0.0 -7.212498188018799 4.084959506988525 -11.445598602294922 -0.14255590736865997 39.74899673461914 1.7998597621917725 -13.015299797058105 -15.98869800567627 -29.275096893310547 -0.0 0.0 -0.0 73.00698852539062 -59.093597412109375 58.122596740722656 3.427159547805786 75.77759552001953 -3.539940118789673 -0.8262329697608948 -2.4230098724365234 -7.931600093841553
-23.27755632816015 37.8188257362523 2.2964148449029804 -145.76800537109375 -62.171104431152344 151.60302734375 15.522199630737305 10.301100730895996 4.208849906921387 1.1302099227905273 -8.595169067382812 1.340579867362976 -0.01787351630628109 12.073299407958984 4.854949474334717 3.346179723739624 -26.7106990814209 10.470198631286621 -0.0 0.0 -0.0 -0.0 0.0 -0.0 4.834442850383536e-13 -3.358665559213825e-12 6.170275878777942e-13 104.8219985961914 45.33939743041992 -52.29929733276367 -26.343393325805664 -45.576499938964844 94.65479278564453 -10.00520133972168 -63.24029541015625 -16.183300018310547 -2.861532122366839e-09 1.8459937745074484e-10 9.05166719356032e-10 -4.965608813023437e-09 3.697839812133452e-10 1.4147424343136095e-09 -2.861532122366839e-09 1.8459937745074484e-10 9.051603910847916e-10 7.7309088706970215 5.474880218505859 0.41731396317481995 -2.861532122366839e-09 1.8459937745074484e-10 9.051603910847916e-10 2.9055399894714355 0.9651829600334167 0.10290198773145676 -2.861532122366839e-09 1.8459937745074484e-10 9.051603910847916e-10 10.27859878540039 0.73180091381073 0.025912299752235413 -2.861532122366839e-09 1.8459937745074484e-10 9.051603910847916e-10 2.2216696739196777 -0.7334870100021362 -0.2089199721813202 4.834442850383536e-13 -3.358665559213825e-12 6.170275878777942e-13 -74.67479705810547 -12.56980037689209 -88.28469848632812 6.087109088897705 -2.082659959793091 -10.641799926757812 14.902800559997559 69.04280090332031 -21.530603408813477 3.4291467443381407e-09 1.4485008748010841e-09 -3.9052885369983414e-09 5.644491984924116e-09 2.0855532856245418e-09 -6.86422163553857e-09 3.4291467443381407e-09 1.4485008748010841e-09 -3.905281875660194e-09 -7.7309088706970215 5.474880218505859 -0.41731396317481995 3.4291467443381407e-09 1.4485008748010841e-09 -3.9052885369983414e-09 -2.9055399894714355 0.9651829600334167 -0.10290198773145676 3.4291212092085743e-09 1.4485008748010841e-09 -3.9052885369983414e-09 -10.27859878540039 0.73180091381073 -0.025912299752235413 3.4291467443381407e-09 1.4485008748010841e-09 -3.905300971496217e-09 -2.2216696739196777 -0.7334870100021362 0.2089199721813202 -0.0 0.0 -0.0 -7.154599189758301 4.036749839782715 -11.303999900817871 -0.14164406061172485 39.72760009765625 1.8028998374938965 -13.082499504089355 -15.87549877166748 -29.53820037841797 -0.0 0.0 -0.0 73.34569549560547 -59.03850555419922 58.56399917602539 3.4591197967529297 75.88079833984375 -3.574859857559204 -0.8405959010124207 -2.367079734802246 -8.03809928894043
